<svg id="visual" viewBox="0 0 1920 1080" width="1920" height="1080" xmlns="http://www.w3.org/2000/svg" xmlns:xlink="http://www.w3.org/1999/xlink" version="1.1"><g stroke-width="1" stroke-linejoin="bevel"><path d="M990.5 538L1030.5 404L936.5 506Z" fill="#478aaf" stroke="#478aaf"></path><path d="M990.5 538L1071.4 413L1030.5 404Z" fill="#89afc9" stroke="#89afc9"></path><path d="M990.5 538L1097.4 546L1071.4 413Z" fill="#c4d6e4" stroke="#c4d6e4"></path><path d="M1074.4 321L1029.5 326L1030.5 404Z" fill="#5f96b8" stroke="#5f96b8"></path><path d="M880.5 347L849.5 391L936.5 506Z" fill="#478aaf" stroke="#478aaf"></path><path d="M972.5 704L1059.5 619L990.5 538Z" fill="#ffffff" stroke="#ffffff"></path><path d="M990.5 538L1059.5 619L1097.4 546Z" fill="#ffffff" stroke="#ffffff"></path><path d="M880.5 347L936.5 506L1030.5 404Z" fill="#89afc9" stroke="#89afc9"></path><path d="M1235.4 361L1074.4 321L1071.4 413Z" fill="#9dbcd2" stroke="#9dbcd2"></path><path d="M1071.4 413L1074.4 321L1030.5 404Z" fill="#d8e4ed" stroke="#d8e4ed"></path><path d="M1029.5 326L880.5 347L1030.5 404Z" fill="#9dbcd2" stroke="#9dbcd2"></path><path d="M759.6 485L812.6 440L706.6 473Z" fill="#297ea6" stroke="#297ea6"></path><path d="M849.5 391L812.6 440L936.5 506Z" fill="#c4d6e4" stroke="#c4d6e4"></path><path d="M936.5 506L852.5 604L990.5 538Z" fill="#9dbcd2" stroke="#9dbcd2"></path><path d="M812.6 440L852.5 604L936.5 506Z" fill="#d8e4ed" stroke="#d8e4ed"></path><path d="M1080.4 209L969.5 238L1029.5 326Z" fill="#c4d6e4" stroke="#c4d6e4"></path><path d="M1029.5 326L969.5 238L880.5 347Z" fill="#b1c9db" stroke="#b1c9db"></path><path d="M766.6 320L812.6 440L849.5 391Z" fill="#ffffff" stroke="#ffffff"></path><path d="M812.6 440L759.6 485L852.5 604Z" fill="#478aaf" stroke="#478aaf"></path><path d="M766.6 320L849.5 391L880.5 347Z" fill="#ffffff" stroke="#ffffff"></path><path d="M852.5 604L972.5 704L990.5 538Z" fill="#b1c9db" stroke="#b1c9db"></path><path d="M1149.4 687L1235.4 561L1097.4 546Z" fill="#75a3c0" stroke="#75a3c0"></path><path d="M1097.4 546L1235.4 561L1071.4 413Z" fill="#297ea6" stroke="#297ea6"></path><path d="M1149.4 687L1097.4 546L1059.5 619Z" fill="#ebf1f6" stroke="#ebf1f6"></path><path d="M1235.4 561L1235.4 361L1071.4 413Z" fill="#b1c9db" stroke="#b1c9db"></path><path d="M1074.4 321L1080.4 209L1029.5 326Z" fill="#89afc9" stroke="#89afc9"></path><path d="M972.5 704L1149.4 687L1059.5 619Z" fill="#9dbcd2" stroke="#9dbcd2"></path><path d="M823.6 705L859.5 698L852.5 604Z" fill="#c4d6e4" stroke="#c4d6e4"></path><path d="M852.5 604L859.5 698L972.5 704Z" fill="#ebf1f6" stroke="#ebf1f6"></path><path d="M1265.4 213L1080.4 209L1074.4 321Z" fill="#c4d6e4" stroke="#c4d6e4"></path><path d="M941.5 165L766.6 320L880.5 347Z" fill="#478aaf" stroke="#478aaf"></path><path d="M706.6 473L712.6 490L759.6 485Z" fill="#75a3c0" stroke="#75a3c0"></path><path d="M759.6 485L675.6 637L852.5 604Z" fill="#c4d6e4" stroke="#c4d6e4"></path><path d="M766.6 320L706.6 473L812.6 440Z" fill="#ffffff" stroke="#ffffff"></path><path d="M781.6 730L823.6 705L675.6 637Z" fill="#d8e4ed" stroke="#d8e4ed"></path><path d="M861.5 828L1063.5 825L972.5 704Z" fill="#5f96b8" stroke="#5f96b8"></path><path d="M1080.4 209L1000.5 162L969.5 238Z" fill="#c4d6e4" stroke="#c4d6e4"></path><path d="M969.5 238L941.5 165L880.5 347Z" fill="#b1c9db" stroke="#b1c9db"></path><path d="M1000.5 162L941.5 165L969.5 238Z" fill="#75a3c0" stroke="#75a3c0"></path><path d="M1235.4 561L1297.4 386L1235.4 361Z" fill="#c4d6e4" stroke="#c4d6e4"></path><path d="M1265.4 213L1160.4 148L1080.4 209Z" fill="#d8e4ed" stroke="#d8e4ed"></path><path d="M1149.4 687L1267.4 639L1235.4 561Z" fill="#5f96b8" stroke="#5f96b8"></path><path d="M1235.4 561L1399.3 443L1297.4 386Z" fill="#9dbcd2" stroke="#9dbcd2"></path><path d="M1000.5 162L953.5 140L941.5 165Z" fill="#c4d6e4" stroke="#c4d6e4"></path><path d="M694.6 246L698.6 282L766.6 320Z" fill="#297ea6" stroke="#297ea6"></path><path d="M675.6 637L823.6 705L852.5 604Z" fill="#9dbcd2" stroke="#9dbcd2"></path><path d="M823.6 705L861.5 828L859.5 698Z" fill="#5f96b8" stroke="#5f96b8"></path><path d="M1121.4 811L1194.4 747L1149.4 687Z" fill="#5f96b8" stroke="#5f96b8"></path><path d="M675.6 637L759.6 485L712.6 490Z" fill="#478aaf" stroke="#478aaf"></path><path d="M1063.5 825L1149.4 687L972.5 704Z" fill="#d8e4ed" stroke="#d8e4ed"></path><path d="M1149.4 687L1194.4 747L1267.4 639Z" fill="#9dbcd2" stroke="#9dbcd2"></path><path d="M694.6 246L766.6 320L735.6 173Z" fill="#5f96b8" stroke="#5f96b8"></path><path d="M766.6 320L612.7 333L706.6 473Z" fill="#d8e4ed" stroke="#d8e4ed"></path><path d="M1265.4 213L1074.4 321L1235.4 361Z" fill="#297ea6" stroke="#297ea6"></path><path d="M1080.4 209L1160.4 148L1000.5 162Z" fill="#297ea6" stroke="#297ea6"></path><path d="M1000.5 162L1044.5 0L953.5 140Z" fill="#5f96b8" stroke="#5f96b8"></path><path d="M583.7 500L712.6 490L706.6 473Z" fill="#9dbcd2" stroke="#9dbcd2"></path><path d="M583.7 500L675.6 637L712.6 490Z" fill="#ffffff" stroke="#ffffff"></path><path d="M861.5 828L972.5 704L859.5 698Z" fill="#297ea6" stroke="#297ea6"></path><path d="M1063.5 825L1121.4 811L1149.4 687Z" fill="#b1c9db" stroke="#b1c9db"></path><path d="M1299.3 249L1265.4 213L1235.4 361Z" fill="#89afc9" stroke="#89afc9"></path><path d="M1297.4 386L1299.3 249L1235.4 361Z" fill="#9dbcd2" stroke="#9dbcd2"></path><path d="M735.6 173L766.6 320L941.5 165Z" fill="#d8e4ed" stroke="#d8e4ed"></path><path d="M698.6 282L612.7 333L766.6 320Z" fill="#9dbcd2" stroke="#9dbcd2"></path><path d="M675.6 637L728.6 742L781.6 730Z" fill="#d8e4ed" stroke="#d8e4ed"></path><path d="M804.6 821L861.5 828L823.6 705Z" fill="#478aaf" stroke="#478aaf"></path><path d="M804.6 821L823.6 705L781.6 730Z" fill="#297ea6" stroke="#297ea6"></path><path d="M1265.4 213L1185.4 130L1160.4 148Z" fill="#c4d6e4" stroke="#c4d6e4"></path><path d="M1073.4 0L1044.5 0L1000.5 162Z" fill="#478aaf" stroke="#478aaf"></path><path d="M793.6 116L735.6 173L941.5 165Z" fill="#478aaf" stroke="#478aaf"></path><path d="M728.6 742L804.6 821L781.6 730Z" fill="#b1c9db" stroke="#b1c9db"></path><path d="M1410.3 528L1399.3 443L1235.4 561Z" fill="#297ea6" stroke="#297ea6"></path><path d="M1297.4 386L1388.3 351L1299.3 249Z" fill="#ebf1f6" stroke="#ebf1f6"></path><path d="M887.5 0L793.6 116L953.5 140Z" fill="#ffffff" stroke="#ffffff"></path><path d="M953.5 140L793.6 116L941.5 165Z" fill="#9dbcd2" stroke="#9dbcd2"></path><path d="M589.7 185L612.7 333L694.6 246Z" fill="#9dbcd2" stroke="#9dbcd2"></path><path d="M694.6 246L612.7 333L698.6 282Z" fill="#d8e4ed" stroke="#d8e4ed"></path><path d="M1399.3 443L1388.3 351L1297.4 386Z" fill="#89afc9" stroke="#89afc9"></path><path d="M555.7 401L583.7 500L706.6 473Z" fill="#75a3c0" stroke="#75a3c0"></path><path d="M675.6 637L613.7 717L728.6 742Z" fill="#89afc9" stroke="#89afc9"></path><path d="M1213.4 930L1161.4 851L1113.4 1004Z" fill="#75a3c0" stroke="#75a3c0"></path><path d="M1063.5 825L1161.4 851L1121.4 811Z" fill="#d8e4ed" stroke="#d8e4ed"></path><path d="M1121.4 811L1161.4 851L1194.4 747Z" fill="#ebf1f6" stroke="#ebf1f6"></path><path d="M1373.3 731L1379.3 657L1267.4 639Z" fill="#c4d6e4" stroke="#c4d6e4"></path><path d="M1267.4 639L1410.3 528L1235.4 561Z" fill="#ebf1f6" stroke="#ebf1f6"></path><path d="M1422.2 572L1410.3 528L1267.4 639Z" fill="#5f96b8" stroke="#5f96b8"></path><path d="M1399.3 443L1454.2 335L1388.3 351Z" fill="#89afc9" stroke="#89afc9"></path><path d="M1292.4 814L1267.4 639L1194.4 747Z" fill="#478aaf" stroke="#478aaf"></path><path d="M793.6 116L684.6 160L735.6 173Z" fill="#c4d6e4" stroke="#c4d6e4"></path><path d="M735.6 173L684.6 160L694.6 246Z" fill="#d8e4ed" stroke="#d8e4ed"></path><path d="M1379.3 657L1422.2 572L1267.4 639Z" fill="#89afc9" stroke="#89afc9"></path><path d="M1410.3 528L1467.2 475L1399.3 443Z" fill="#75a3c0" stroke="#75a3c0"></path><path d="M1265.4 213L1305.3 150L1185.4 130Z" fill="#ebf1f6" stroke="#ebf1f6"></path><path d="M1299.3 249L1305.3 150L1265.4 213Z" fill="#d8e4ed" stroke="#d8e4ed"></path><path d="M1434.2 175L1305.3 150L1299.3 249Z" fill="#b1c9db" stroke="#b1c9db"></path><path d="M459.8 326L555.7 401L612.7 333Z" fill="#478aaf" stroke="#478aaf"></path><path d="M612.7 333L555.7 401L706.6 473Z" fill="#5f96b8" stroke="#5f96b8"></path><path d="M1161.4 851L1292.4 814L1194.4 747Z" fill="#5f96b8" stroke="#5f96b8"></path><path d="M512.7 636L613.7 717L675.6 637Z" fill="#d8e4ed" stroke="#d8e4ed"></path><path d="M728.6 742L646.6 857L804.6 821Z" fill="#c4d6e4" stroke="#c4d6e4"></path><path d="M512.7 636L675.6 637L583.7 500Z" fill="#ffffff" stroke="#ffffff"></path><path d="M1292.4 814L1373.3 731L1267.4 639Z" fill="#75a3c0" stroke="#75a3c0"></path><path d="M1379.3 657L1515.2 615L1422.2 572Z" fill="#5f96b8" stroke="#5f96b8"></path><path d="M1073.4 0L1160.4 148L1185.4 130Z" fill="#c4d6e4" stroke="#c4d6e4"></path><path d="M1073.4 0L1000.5 162L1160.4 148Z" fill="#d8e4ed" stroke="#d8e4ed"></path><path d="M793.6 116L678.6 0L684.6 160Z" fill="#5f96b8" stroke="#5f96b8"></path><path d="M777.6 1004L937.5 934L861.5 828Z" fill="#478aaf" stroke="#478aaf"></path><path d="M861.5 828L937.5 934L1063.5 825Z" fill="#5f96b8" stroke="#5f96b8"></path><path d="M1161.4 851L1213.4 930L1292.4 814Z" fill="#89afc9" stroke="#89afc9"></path><path d="M777.6 1004L861.5 828L804.6 821Z" fill="#5f96b8" stroke="#5f96b8"></path><path d="M1515.2 615L1467.2 475L1422.2 572Z" fill="#c4d6e4" stroke="#c4d6e4"></path><path d="M1422.2 572L1467.2 475L1410.3 528Z" fill="#89afc9" stroke="#89afc9"></path><path d="M1388.3 351L1434.2 175L1299.3 249Z" fill="#478aaf" stroke="#478aaf"></path><path d="M1242.4 0L1073.4 0L1185.4 130Z" fill="#89afc9" stroke="#89afc9"></path><path d="M1467.2 475L1454.2 335L1399.3 443Z" fill="#9dbcd2" stroke="#9dbcd2"></path><path d="M1044.5 0L887.5 0L953.5 140Z" fill="#89afc9" stroke="#89afc9"></path><path d="M521.7 108L589.7 185L684.6 160Z" fill="#b1c9db" stroke="#b1c9db"></path><path d="M684.6 160L589.7 185L694.6 246Z" fill="#89afc9" stroke="#89afc9"></path><path d="M887.5 0L828.6 0L793.6 116Z" fill="#9dbcd2" stroke="#9dbcd2"></path><path d="M1113.4 1004L1161.4 851L1063.5 825Z" fill="#9dbcd2" stroke="#9dbcd2"></path><path d="M1292.4 814L1371.3 838L1373.3 731Z" fill="#89afc9" stroke="#89afc9"></path><path d="M446.8 559L583.7 500L427.8 464Z" fill="#ebf1f6" stroke="#ebf1f6"></path><path d="M446.8 559L512.7 636L583.7 500Z" fill="#c4d6e4" stroke="#c4d6e4"></path><path d="M508.7 833L646.6 857L613.7 717Z" fill="#c4d6e4" stroke="#c4d6e4"></path><path d="M613.7 717L646.6 857L728.6 742Z" fill="#9dbcd2" stroke="#9dbcd2"></path><path d="M1454.2 335L1434.2 175L1388.3 351Z" fill="#478aaf" stroke="#478aaf"></path><path d="M1305.3 150L1242.4 0L1185.4 130Z" fill="#ffffff" stroke="#ffffff"></path><path d="M1412.2 79L1242.4 0L1305.3 150Z" fill="#d8e4ed" stroke="#d8e4ed"></path><path d="M1365.3 963L1371.3 838L1292.4 814Z" fill="#ffffff" stroke="#ffffff"></path><path d="M1479.2 734L1515.2 615L1379.3 657Z" fill="#478aaf" stroke="#478aaf"></path><path d="M1479.2 734L1379.3 657L1373.3 731Z" fill="#478aaf" stroke="#478aaf"></path><path d="M1467.2 475L1610.2 455L1454.2 335Z" fill="#478aaf" stroke="#478aaf"></path><path d="M1454.2 335L1597.2 281L1434.2 175Z" fill="#297ea6" stroke="#297ea6"></path><path d="M922.5 1080L1023.5 1007L937.5 934Z" fill="#75a3c0" stroke="#75a3c0"></path><path d="M937.5 934L1023.5 1007L1063.5 825Z" fill="#75a3c0" stroke="#75a3c0"></path><path d="M1023.5 1007L1113.4 1004L1063.5 825Z" fill="#89afc9" stroke="#89afc9"></path><path d="M1420.2 919L1434.2 890L1371.3 838Z" fill="#ebf1f6" stroke="#ebf1f6"></path><path d="M1371.3 838L1479.2 734L1373.3 731Z" fill="#9dbcd2" stroke="#9dbcd2"></path><path d="M589.7 185L459.8 326L612.7 333Z" fill="#c4d6e4" stroke="#c4d6e4"></path><path d="M427.8 464L583.7 500L555.7 401Z" fill="#297ea6" stroke="#297ea6"></path><path d="M508.7 833L639.6 916L646.6 857Z" fill="#c4d6e4" stroke="#c4d6e4"></path><path d="M828.6 0L678.6 0L793.6 116Z" fill="#c4d6e4" stroke="#c4d6e4"></path><path d="M589.7 185L426.8 240L459.8 326Z" fill="#297ea6" stroke="#297ea6"></path><path d="M459.8 326L427.8 464L555.7 401Z" fill="#c4d6e4" stroke="#c4d6e4"></path><path d="M1434.2 175L1412.2 79L1305.3 150Z" fill="#d8e4ed" stroke="#d8e4ed"></path><path d="M508.7 833L613.7 717L512.7 636Z" fill="#b1c9db" stroke="#b1c9db"></path><path d="M646.6 857L639.6 916L804.6 821Z" fill="#ffffff" stroke="#ffffff"></path><path d="M639.6 916L777.6 1004L804.6 821Z" fill="#b1c9db" stroke="#b1c9db"></path><path d="M678.6 0L521.7 108L684.6 160Z" fill="#478aaf" stroke="#478aaf"></path><path d="M365.8 327L427.8 464L459.8 326Z" fill="#d8e4ed" stroke="#d8e4ed"></path><path d="M365.8 327L391.8 466L427.8 464Z" fill="#b1c9db" stroke="#b1c9db"></path><path d="M427.8 464L391.8 466L446.8 559Z" fill="#5f96b8" stroke="#5f96b8"></path><path d="M427.8 688L508.7 833L512.7 636Z" fill="#ffffff" stroke="#ffffff"></path><path d="M1365.3 963L1292.4 814L1213.4 930Z" fill="#297ea6" stroke="#297ea6"></path><path d="M1371.3 838L1434.2 890L1479.2 734Z" fill="#b1c9db" stroke="#b1c9db"></path><path d="M1641.1 526L1467.2 475L1515.2 615Z" fill="#ebf1f6" stroke="#ebf1f6"></path><path d="M427.8 688L512.7 636L446.8 559Z" fill="#b1c9db" stroke="#b1c9db"></path><path d="M639.6 916L702.6 1080L777.6 1004Z" fill="#5f96b8" stroke="#5f96b8"></path><path d="M405.8 716L427.8 688L316.8 656Z" fill="#5f96b8" stroke="#5f96b8"></path><path d="M521.7 108L426.8 240L589.7 185Z" fill="#89afc9" stroke="#89afc9"></path><path d="M1619.2 637L1515.2 615L1585.2 752Z" fill="#c4d6e4" stroke="#c4d6e4"></path><path d="M1641.1 526L1610.2 455L1467.2 475Z" fill="#89afc9" stroke="#89afc9"></path><path d="M1434.2 175L1489.2 0L1412.2 79Z" fill="#c4d6e4" stroke="#c4d6e4"></path><path d="M922.5 1080L1039.5 1080L1023.5 1007Z" fill="#9dbcd2" stroke="#9dbcd2"></path><path d="M1023.5 1007L1077.4 1080L1113.4 1004Z" fill="#ebf1f6" stroke="#ebf1f6"></path><path d="M1216.4 1080L1365.3 963L1213.4 930Z" fill="#ffffff" stroke="#ffffff"></path><path d="M777.6 1004L922.5 1080L937.5 934Z" fill="#ebf1f6" stroke="#ebf1f6"></path><path d="M1216.4 1080L1213.4 930L1113.4 1004Z" fill="#297ea6" stroke="#297ea6"></path><path d="M1039.5 1080L1077.4 1080L1023.5 1007Z" fill="#d8e4ed" stroke="#d8e4ed"></path><path d="M1489.2 0L1403.3 0L1412.2 79Z" fill="#297ea6" stroke="#297ea6"></path><path d="M1412.2 79L1403.3 0L1242.4 0Z" fill="#9dbcd2" stroke="#9dbcd2"></path><path d="M1365.3 963L1420.2 919L1371.3 838Z" fill="#ebf1f6" stroke="#ebf1f6"></path><path d="M1610.2 455L1597.2 281L1454.2 335Z" fill="#b1c9db" stroke="#b1c9db"></path><path d="M320.8 580L427.8 688L446.8 559Z" fill="#5f96b8" stroke="#5f96b8"></path><path d="M427.8 688L425.8 811L508.7 833Z" fill="#c4d6e4" stroke="#c4d6e4"></path><path d="M1585.2 752L1479.2 734L1434.2 890Z" fill="#c4d6e4" stroke="#c4d6e4"></path><path d="M1585.2 752L1515.2 615L1479.2 734Z" fill="#5f96b8" stroke="#5f96b8"></path><path d="M426.8 240L365.8 327L459.8 326Z" fill="#5f96b8" stroke="#5f96b8"></path><path d="M391.8 466L320.8 580L446.8 559Z" fill="#c4d6e4" stroke="#c4d6e4"></path><path d="M1634.2 584L1641.1 526L1515.2 615Z" fill="#ffffff" stroke="#ffffff"></path><path d="M1661.1 295L1634.2 271L1597.2 281Z" fill="#ebf1f6" stroke="#ebf1f6"></path><path d="M1619.2 637L1634.2 584L1515.2 615Z" fill="#89afc9" stroke="#89afc9"></path><path d="M508.7 833L588.7 973L639.6 916Z" fill="#297ea6" stroke="#297ea6"></path><path d="M777.6 1004L751.6 1080L922.5 1080Z" fill="#ebf1f6" stroke="#ebf1f6"></path><path d="M486.8 964L588.7 973L508.7 833Z" fill="#5f96b8" stroke="#5f96b8"></path><path d="M1077.4 1080L1216.4 1080L1113.4 1004Z" fill="#ebf1f6" stroke="#ebf1f6"></path><path d="M1659.1 734L1585.2 752L1636.2 817Z" fill="#75a3c0" stroke="#75a3c0"></path><path d="M521.7 108L418.8 118L426.8 240Z" fill="#89afc9" stroke="#89afc9"></path><path d="M426.8 240L340.8 227L365.8 327Z" fill="#5f96b8" stroke="#5f96b8"></path><path d="M678.6 0L530.7 0L521.7 108Z" fill="#75a3c0" stroke="#75a3c0"></path><path d="M702.6 1080L751.6 1080L777.6 1004Z" fill="#b1c9db" stroke="#b1c9db"></path><path d="M405.8 716L425.8 811L427.8 688Z" fill="#b1c9db" stroke="#b1c9db"></path><path d="M1661.1 295L1597.2 281L1610.2 455Z" fill="#ffffff" stroke="#ffffff"></path><path d="M1634.2 70L1554.2 0L1434.2 175Z" fill="#ebf1f6" stroke="#ebf1f6"></path><path d="M416.8 0L418.8 118L521.7 108Z" fill="#89afc9" stroke="#89afc9"></path><path d="M1554.2 0L1489.2 0L1434.2 175Z" fill="#b1c9db" stroke="#b1c9db"></path><path d="M588.7 973L702.6 1080L639.6 916Z" fill="#ffffff" stroke="#ffffff"></path><path d="M235.9 465L320.8 580L391.8 466Z" fill="#89afc9" stroke="#89afc9"></path><path d="M405.8 716L325.8 723L425.8 811Z" fill="#89afc9" stroke="#89afc9"></path><path d="M1683.1 460L1661.1 295L1610.2 455Z" fill="#ebf1f6" stroke="#ebf1f6"></path><path d="M1634.2 70L1434.2 175L1597.2 281Z" fill="#297ea6" stroke="#297ea6"></path><path d="M1846.1 525L1683.1 460L1641.1 526Z" fill="#89afc9" stroke="#89afc9"></path><path d="M1641.1 526L1683.1 460L1610.2 455Z" fill="#297ea6" stroke="#297ea6"></path><path d="M1778.1 644L1641.1 526L1634.2 584Z" fill="#75a3c0" stroke="#75a3c0"></path><path d="M1712.1 668L1634.2 584L1619.2 637Z" fill="#9dbcd2" stroke="#9dbcd2"></path><path d="M418.8 118L340.8 227L426.8 240Z" fill="#ffffff" stroke="#ffffff"></path><path d="M365.8 327L272.9 368L391.8 466Z" fill="#d8e4ed" stroke="#d8e4ed"></path><path d="M1459.2 1080L1547.2 986L1420.2 919Z" fill="#9dbcd2" stroke="#9dbcd2"></path><path d="M1636.2 817L1585.2 752L1434.2 890Z" fill="#d8e4ed" stroke="#d8e4ed"></path><path d="M1216.4 1080L1341.3 1080L1365.3 963Z" fill="#478aaf" stroke="#478aaf"></path><path d="M320.8 580L316.8 656L427.8 688Z" fill="#b1c9db" stroke="#b1c9db"></path><path d="M311.8 902L486.8 964L425.8 811Z" fill="#c4d6e4" stroke="#c4d6e4"></path><path d="M425.8 811L486.8 964L508.7 833Z" fill="#75a3c0" stroke="#75a3c0"></path><path d="M588.7 973L568.7 1080L702.6 1080Z" fill="#5f96b8" stroke="#5f96b8"></path><path d="M1636.2 817L1434.2 890L1547.2 986Z" fill="#b1c9db" stroke="#b1c9db"></path><path d="M1585.2 752L1659.1 734L1619.2 637Z" fill="#b1c9db" stroke="#b1c9db"></path><path d="M316.8 656L325.8 723L405.8 716Z" fill="#ffffff" stroke="#ffffff"></path><path d="M1634.2 70L1597.2 281L1634.2 271Z" fill="#ffffff" stroke="#ffffff"></path><path d="M1547.2 986L1434.2 890L1420.2 919Z" fill="#b1c9db" stroke="#b1c9db"></path><path d="M340.8 227L272.9 368L365.8 327Z" fill="#b1c9db" stroke="#b1c9db"></path><path d="M320.8 580L208.9 688L316.8 656Z" fill="#ffffff" stroke="#ffffff"></path><path d="M316.8 656L208.9 688L325.8 723Z" fill="#c4d6e4" stroke="#c4d6e4"></path><path d="M1778.1 644L1712.1 668L1765.1 800Z" fill="#5f96b8" stroke="#5f96b8"></path><path d="M1659.1 734L1712.1 668L1619.2 637Z" fill="#297ea6" stroke="#297ea6"></path><path d="M1718.1 233L1634.2 271L1661.1 295Z" fill="#478aaf" stroke="#478aaf"></path><path d="M418.8 118L277.9 163L340.8 227Z" fill="#ebf1f6" stroke="#ebf1f6"></path><path d="M340.8 227L277.9 163L272.9 368Z" fill="#b1c9db" stroke="#b1c9db"></path><path d="M530.7 0L416.8 0L521.7 108Z" fill="#89afc9" stroke="#89afc9"></path><path d="M486.8 964L568.7 1080L588.7 973Z" fill="#b1c9db" stroke="#b1c9db"></path><path d="M1718.1 233L1661.1 295L1762.1 291Z" fill="#5f96b8" stroke="#5f96b8"></path><path d="M1718.1 233L1634.2 70L1634.2 271Z" fill="#478aaf" stroke="#478aaf"></path><path d="M1459.2 1080L1420.2 919L1365.3 963Z" fill="#ebf1f6" stroke="#ebf1f6"></path><path d="M1765.1 403L1661.1 295L1683.1 460Z" fill="#75a3c0" stroke="#75a3c0"></path><path d="M272.9 368L235.9 465L391.8 466Z" fill="#89afc9" stroke="#89afc9"></path><path d="M1341.3 1080L1459.2 1080L1365.3 963Z" fill="#297ea6" stroke="#297ea6"></path><path d="M1846.1 525L1765.1 403L1683.1 460Z" fill="#9dbcd2" stroke="#9dbcd2"></path><path d="M309.8 86L277.9 163L418.8 118Z" fill="#ffffff" stroke="#ffffff"></path><path d="M85.9 420L158.9 517L235.9 465Z" fill="#9dbcd2" stroke="#9dbcd2"></path><path d="M416.8 0L309.8 86L418.8 118Z" fill="#c4d6e4" stroke="#c4d6e4"></path><path d="M1765.1 403L1762.1 291L1661.1 295Z" fill="#478aaf" stroke="#478aaf"></path><path d="M1723.1 113L1638.1 0L1634.2 70Z" fill="#75a3c0" stroke="#75a3c0"></path><path d="M1634.2 70L1638.1 0L1554.2 0Z" fill="#ffffff" stroke="#ffffff"></path><path d="M1723.1 113L1634.2 70L1718.1 233Z" fill="#ffffff" stroke="#ffffff"></path><path d="M158.9 517L203.9 521L235.9 465Z" fill="#9dbcd2" stroke="#9dbcd2"></path><path d="M235.9 465L203.9 521L320.8 580Z" fill="#478aaf" stroke="#478aaf"></path><path d="M1576.2 1080L1642.1 932L1547.2 986Z" fill="#d8e4ed" stroke="#d8e4ed"></path><path d="M1547.2 986L1642.1 932L1636.2 817Z" fill="#ffffff" stroke="#ffffff"></path><path d="M1765.1 800L1712.1 668L1659.1 734Z" fill="#478aaf" stroke="#478aaf"></path><path d="M1722.1 822L1659.1 734L1636.2 817Z" fill="#75a3c0" stroke="#75a3c0"></path><path d="M1712.1 668L1778.1 644L1634.2 584Z" fill="#ffffff" stroke="#ffffff"></path><path d="M1813.1 239L1718.1 233L1762.1 291Z" fill="#5f96b8" stroke="#5f96b8"></path><path d="M1642.1 932L1722.1 822L1636.2 817Z" fill="#478aaf" stroke="#478aaf"></path><path d="M1787.1 165L1723.1 113L1718.1 233Z" fill="#ebf1f6" stroke="#ebf1f6"></path><path d="M325.8 723L311.8 902L425.8 811Z" fill="#ffffff" stroke="#ffffff"></path><path d="M486.8 964L436.8 1080L568.7 1080Z" fill="#478aaf" stroke="#478aaf"></path><path d="M238.9 839L311.8 902L325.8 723Z" fill="#478aaf" stroke="#478aaf"></path><path d="M309.8 86L250.9 145L277.9 163Z" fill="#89afc9" stroke="#89afc9"></path><path d="M416.8 0L332.8 0L309.8 86Z" fill="#ebf1f6" stroke="#ebf1f6"></path><path d="M263.9 0L250.9 145L309.8 86Z" fill="#5f96b8" stroke="#5f96b8"></path><path d="M277.9 163L250.9 145L272.9 368Z" fill="#297ea6" stroke="#297ea6"></path><path d="M203.9 521L208.9 688L320.8 580Z" fill="#ffffff" stroke="#ffffff"></path><path d="M286.8 993L436.8 1080L486.8 964Z" fill="#ebf1f6" stroke="#ebf1f6"></path><path d="M113.9 652L195.9 703L208.9 688Z" fill="#478aaf" stroke="#478aaf"></path><path d="M208.9 688L195.9 703L325.8 723Z" fill="#89afc9" stroke="#89afc9"></path><path d="M1814.1 840L1765.1 800L1722.1 822Z" fill="#5f96b8" stroke="#5f96b8"></path><path d="M1722.1 822L1765.1 800L1659.1 734Z" fill="#89afc9" stroke="#89afc9"></path><path d="M85.9 420L235.9 465L272.9 368Z" fill="#5f96b8" stroke="#5f96b8"></path><path d="M203.9 521L113.9 652L208.9 688Z" fill="#c4d6e4" stroke="#c4d6e4"></path><path d="M195.9 703L238.9 839L325.8 723Z" fill="#ebf1f6" stroke="#ebf1f6"></path><path d="M311.8 902L286.8 993L486.8 964Z" fill="#d8e4ed" stroke="#d8e4ed"></path><path d="M1459.2 1080L1576.2 1080L1547.2 986Z" fill="#75a3c0" stroke="#75a3c0"></path><path d="M1826.1 933L1814.1 840L1722.1 822Z" fill="#c4d6e4" stroke="#c4d6e4"></path><path d="M1813.1 239L1762.1 291L1920 299Z" fill="#d8e4ed" stroke="#d8e4ed"></path><path d="M1813.1 239L1787.1 165L1718.1 233Z" fill="#297ea6" stroke="#297ea6"></path><path d="M1723.1 113L1812.1 0L1638.1 0Z" fill="#ebf1f6" stroke="#ebf1f6"></path><path d="M1920 299L1762.1 291L1765.1 403Z" fill="#ffffff" stroke="#ffffff"></path><path d="M1846.1 525L1641.1 526L1778.1 644Z" fill="#478aaf" stroke="#478aaf"></path><path d="M1920 487L1846.1 525L1920 597Z" fill="#75a3c0" stroke="#75a3c0"></path><path d="M332.8 0L263.9 0L309.8 86Z" fill="#297ea6" stroke="#297ea6"></path><path d="M60.9 315L85.9 420L272.9 368Z" fill="#75a3c0" stroke="#75a3c0"></path><path d="M194.9 952L311.8 902L238.9 839Z" fill="#478aaf" stroke="#478aaf"></path><path d="M194.9 952L286.8 993L311.8 902Z" fill="#d8e4ed" stroke="#d8e4ed"></path><path d="M1826.1 933L1722.1 822L1642.1 932Z" fill="#c4d6e4" stroke="#c4d6e4"></path><path d="M1765.1 800L1920 701L1778.1 644Z" fill="#75a3c0" stroke="#75a3c0"></path><path d="M158.9 517L113.9 652L203.9 521Z" fill="#75a3c0" stroke="#75a3c0"></path><path d="M114.9 758L168.9 876L238.9 839Z" fill="#297ea6" stroke="#297ea6"></path><path d="M0 599L113.9 652L158.9 517Z" fill="#75a3c0" stroke="#75a3c0"></path><path d="M60.9 315L272.9 368L250.9 145Z" fill="#75a3c0" stroke="#75a3c0"></path><path d="M114.9 758L238.9 839L195.9 703Z" fill="#75a3c0" stroke="#75a3c0"></path><path d="M1920 597L1846.1 525L1778.1 644Z" fill="#b1c9db" stroke="#b1c9db"></path><path d="M1846.1 525L1920 487L1765.1 403Z" fill="#b1c9db" stroke="#b1c9db"></path><path d="M1813.1 239L1920 178L1787.1 165Z" fill="#5f96b8" stroke="#5f96b8"></path><path d="M0 733L114.9 758L113.9 652Z" fill="#75a3c0" stroke="#75a3c0"></path><path d="M113.9 652L114.9 758L195.9 703Z" fill="#9dbcd2" stroke="#9dbcd2"></path><path d="M1920 701L1920 597L1778.1 644Z" fill="#d8e4ed" stroke="#d8e4ed"></path><path d="M200.9 1080L289.8 1080L286.8 993Z" fill="#d8e4ed" stroke="#d8e4ed"></path><path d="M286.8 993L289.8 1080L436.8 1080Z" fill="#75a3c0" stroke="#75a3c0"></path><path d="M200.9 1080L194.9 952L143.9 1010Z" fill="#c4d6e4" stroke="#c4d6e4"></path><path d="M168.9 876L194.9 952L238.9 839Z" fill="#ffffff" stroke="#ffffff"></path><path d="M1920 487L1920 299L1765.1 403Z" fill="#5f96b8" stroke="#5f96b8"></path><path d="M1787.1 165L1812.1 0L1723.1 113Z" fill="#b1c9db" stroke="#b1c9db"></path><path d="M1920 80L1812.1 0L1787.1 165Z" fill="#5f96b8" stroke="#5f96b8"></path><path d="M96.9 0L101.9 154L250.9 145Z" fill="#297ea6" stroke="#297ea6"></path><path d="M101.9 154L60.9 315L250.9 145Z" fill="#5f96b8" stroke="#5f96b8"></path><path d="M85.9 420L0 506L158.9 517Z" fill="#5f96b8" stroke="#5f96b8"></path><path d="M1745.1 1080L1826.1 933L1642.1 932Z" fill="#297ea6" stroke="#297ea6"></path><path d="M1920 783L1920 701L1765.1 800Z" fill="#9dbcd2" stroke="#9dbcd2"></path><path d="M1920 783L1765.1 800L1814.1 840Z" fill="#b1c9db" stroke="#b1c9db"></path><path d="M1920 299L1920 178L1813.1 239Z" fill="#d8e4ed" stroke="#d8e4ed"></path><path d="M1576.2 1080L1745.1 1080L1642.1 932Z" fill="#b1c9db" stroke="#b1c9db"></path><path d="M101.9 154L61.9 197L60.9 315Z" fill="#5f96b8" stroke="#5f96b8"></path><path d="M1745.1 1080L1752.1 1080L1826.1 933Z" fill="#89afc9" stroke="#89afc9"></path><path d="M1920 919L1814.1 840L1826.1 933Z" fill="#9dbcd2" stroke="#9dbcd2"></path><path d="M1920 919L1920 783L1814.1 840Z" fill="#ebf1f6" stroke="#ebf1f6"></path><path d="M0 424L0 506L85.9 420Z" fill="#d8e4ed" stroke="#d8e4ed"></path><path d="M143.9 1010L194.9 952L168.9 876Z" fill="#b1c9db" stroke="#b1c9db"></path><path d="M0 424L85.9 420L60.9 315Z" fill="#c4d6e4" stroke="#c4d6e4"></path><path d="M0 287L0 424L60.9 315Z" fill="#d8e4ed" stroke="#d8e4ed"></path><path d="M1920 178L1920 80L1787.1 165Z" fill="#ffffff" stroke="#ffffff"></path><path d="M143.9 1010L168.9 876L0 1007Z" fill="#b1c9db" stroke="#b1c9db"></path><path d="M194.9 952L200.9 1080L286.8 993Z" fill="#297ea6" stroke="#297ea6"></path><path d="M0 506L0 599L158.9 517Z" fill="#c4d6e4" stroke="#c4d6e4"></path><path d="M0 811L168.9 876L114.9 758Z" fill="#75a3c0" stroke="#75a3c0"></path><path d="M61.9 197L0 287L60.9 315Z" fill="#c4d6e4" stroke="#c4d6e4"></path><path d="M263.9 0L96.9 0L250.9 145Z" fill="#297ea6" stroke="#297ea6"></path><path d="M0 78L0 205L61.9 197Z" fill="#ebf1f6" stroke="#ebf1f6"></path><path d="M61.9 197L0 205L0 287Z" fill="#478aaf" stroke="#478aaf"></path><path d="M1920 999L1920 919L1826.1 933Z" fill="#75a3c0" stroke="#75a3c0"></path><path d="M0 78L61.9 197L101.9 154Z" fill="#478aaf" stroke="#478aaf"></path><path d="M0 599L0 733L113.9 652Z" fill="#ffffff" stroke="#ffffff"></path><path d="M1920 80L1920 0L1812.1 0Z" fill="#5f96b8" stroke="#5f96b8"></path><path d="M0 733L0 811L114.9 758Z" fill="#75a3c0" stroke="#75a3c0"></path><path d="M1752.1 1080L1920 999L1826.1 933Z" fill="#89afc9" stroke="#89afc9"></path><path d="M96.9 0L0 78L101.9 154Z" fill="#75a3c0" stroke="#75a3c0"></path><path d="M0 1007L101.9 1080L143.9 1010Z" fill="#297ea6" stroke="#297ea6"></path><path d="M143.9 1010L101.9 1080L200.9 1080Z" fill="#d8e4ed" stroke="#d8e4ed"></path><path d="M96.9 0L0 0L0 78Z" fill="#75a3c0" stroke="#75a3c0"></path><path d="M1752.1 1080L1920 1080L1920 999Z" fill="#297ea6" stroke="#297ea6"></path><path d="M0 811L0 1007L168.9 876Z" fill="#9dbcd2" stroke="#9dbcd2"></path><path d="M0 1007L0 1080L101.9 1080Z" fill="#478aaf" stroke="#478aaf"></path></g></svg>